<?xml version="1.0" standalone="no"?><!DOCTYPE svg PUBLIC "-//W3C//DTD SVG 1.1//EN" "http://www.w3.org/Graphics/SVG/1.1/DTD/svg11.dtd"><svg t="1638600073555" class="icon" viewBox="0 0 1024 1024" version="1.1" xmlns="http://www.w3.org/2000/svg" p-id="3327" width="32" height="32" xmlns:xlink="http://www.w3.org/1999/xlink"><defs><style type="text/css"></style></defs><path d="M932.90496 68.11648H84.25472c-44.6464 0-80.85504 38.01088-80.85504 84.82816v532.02944c0 46.8992 36.20864 84.86912 80.85504 84.86912h288.03072v97.97632H315.22816v64.26624h-73.728v82.78016h534.07744v-82.78016h-73.64608v-64.26624h-57.09824v-97.97632h288.03072c44.6464 0 80.85504-38.01088 80.85504-84.86912V152.94464c0.04096-46.81728-36.16768-84.82816-80.81408-84.82816z m-7.53664 615.8336H91.79136V154.05056h833.57696v529.89952z" fill="#d81e06" p-id="3328"></path><path d="M670.80192 282.58304l-53.61664-54.31296-108.58496 110.05952-108.62592-110.05952-53.61664 54.31296 108.62592 110.05952-108.62592 110.10048L399.9744 557.056l108.62592-110.05952 108.58496 110.05952 53.61664-54.31296-108.62592-110.10048z" fill="#d81e06" p-id="3329"></path></svg>